<svg width="281" height="241" viewBox="0 0 281 241" fill="none" xmlns="http://www.w3.org/2000/svg">
<path d="M272.25 0.25H8.25C3.83172 0.25 0.25 3.83172 0.25 8.25V232.25C0.25 236.668 3.83172 240.25 8.25 240.25H272.25C276.668 240.25 280.25 236.668 280.25 232.25V8.25C280.25 3.83172 276.668 0.25 272.25 0.25Z" fill="white" stroke="#E5E7EB" stroke-width="0.5"/>
<path d="M48.25 25.25H22.25C21.1454 25.25 20.25 26.1454 20.25 27.25C20.25 28.3546 21.1454 29.25 22.25 29.25H48.25C49.3546 29.25 50.25 28.3546 50.25 27.25C50.25 26.1454 49.3546 25.25 48.25 25.25Z" fill="#D1D5DB"/>
<path d="M88.25 25.25H62.25C61.1454 25.25 60.25 26.1454 60.25 27.25C60.25 28.3546 61.1454 29.25 62.25 29.25H88.25C89.3546 29.25 90.25 28.3546 90.25 27.25C90.25 26.1454 89.3546 25.25 88.25 25.25Z" fill="#D1D5DB"/>
<path d="M128.25 25.25H102.25C101.145 25.25 100.25 26.1454 100.25 27.25C100.25 28.3546 101.145 29.25 102.25 29.25H128.25C129.355 29.25 130.25 28.3546 130.25 27.25C130.25 26.1454 129.355 25.25 128.25 25.25Z" fill="#D1D5DB"/>
<path d="M176.25 55.25H24.25C22.0409 55.25 20.25 57.0409 20.25 59.25V61.25C20.25 63.4591 22.0409 65.25 24.25 65.25H176.25C178.459 65.25 180.25 63.4591 180.25 61.25V59.25C180.25 57.0409 178.459 55.25 176.25 55.25Z" fill="#E5E7EB"/>
<path d="M217.25 75.25H23.25C21.5931 75.25 20.25 76.5931 20.25 78.25C20.25 79.9069 21.5931 81.25 23.25 81.25H217.25C218.907 81.25 220.25 79.9069 220.25 78.25C220.25 76.5931 218.907 75.25 217.25 75.25Z" fill="#F3F4F6"/>
<path d="M157.25 87.25H23.25C21.5931 87.25 20.25 88.5931 20.25 90.25C20.25 91.9069 21.5931 93.25 23.25 93.25H157.25C158.907 93.25 160.25 91.9069 160.25 90.25C160.25 88.5931 158.907 87.25 157.25 87.25Z" fill="#F3F4F6"/>
<path d="M129.25 120.25H26.25C22.9363 120.25 20.25 122.936 20.25 126.25V214.25C20.25 217.564 22.9363 220.25 26.25 220.25H129.25C132.564 220.25 135.25 217.564 135.25 214.25V126.25C135.25 122.936 132.564 120.25 129.25 120.25Z" fill="#F9FAFB" stroke="#F3F4F6"/>
<path d="M254.25 120.25H151.25C147.936 120.25 145.25 122.936 145.25 126.25V214.25C145.25 217.564 147.936 220.25 151.25 220.25H254.25C257.564 220.25 260.25 217.564 260.25 214.25V126.25C260.25 122.936 257.564 120.25 254.25 120.25Z" fill="#F9FAFB" stroke="#F3F4F6"/>
</svg>
